<svg width="16" height="17" viewBox="0 0 16 17" fill="none" xmlns="http://www.w3.org/2000/svg">
<path d="M6.45727 1.90787C7.12958 0.697376 8.87042 0.697376 9.54273 1.90787C9.94115 2.62524 10.7815 2.97331 11.5705 2.74779C12.9018 2.36723 14.1328 3.59819 13.7522 4.92954C13.5267 5.71852 13.8748 6.55884 14.5921 6.95727C15.8026 7.62958 15.8026 9.37042 14.5921 10.0427C13.8748 10.4412 13.5267 11.2815 13.7522 12.0705C14.1328 13.4018 12.9018 14.6328 11.5705 14.2522C10.7815 14.0267 9.94115 14.3748 9.54273 15.0921C8.87042 16.3026 7.12958 16.3026 6.45727 15.0921C6.05884 14.3748 5.21852 14.0267 4.42954 14.2522C3.09819 14.6328 1.86723 13.4018 2.24779 12.0705C2.47331 11.2815 2.12524 10.4412 1.40787 10.0427C0.197376 9.37042 0.197376 7.62958 1.40787 6.95727C2.12524 6.55885 2.47331 5.71852 2.24779 4.92954C1.86723 3.59819 3.09819 2.36723 4.42954 2.74779C5.21852 2.97331 6.05885 2.62524 6.45727 1.90787Z" fill="#3C86ED"/>
<path fill-rule="evenodd" clip-rule="evenodd" d="M11.73 5.96967C12.0229 6.26256 12.0229 6.73744 11.73 7.03033L7.60504 11.1553C7.31214 11.4482 6.83727 11.4482 6.54438 11.1553L4.66938 9.28033C4.37648 8.98744 4.37648 8.51256 4.66938 8.21967C4.96227 7.92678 5.43714 7.92678 5.73004 8.21967L7.07471 9.56434L10.6694 5.96967C10.9623 5.67678 11.4371 5.67678 11.73 5.96967Z" fill="#F5F5F5"/>
</svg>
